<svg width="73" height="42" viewBox="0 0 73 42" fill="none" xmlns="http://www.w3.org/2000/svg">
<path d="M40.2 40.449L71.4674 8.98787C72.4487 8.0005 73 6.66133 73 5.26497C73 3.86861 72.4487 2.52945 71.4674 1.54208C70.4861 0.554704 69.1552 3.50169e-07 67.7674 2.28847e-07C66.3797 1.07525e-07 65.0488 0.554704 64.0675 1.54208L36.5521 29.3327L8.93255 1.54207C7.95126 0.554699 6.62033 -5.14433e-06 5.23257 -5.23813e-06C3.8448 -5.33192e-06 2.51389 0.554698 1.53259 1.54207C0.551294 2.52945 4.85092e-06 3.86861 4.70149e-06 5.26496C4.55206e-06 6.66132 0.551294 8.00049 1.53259 8.98787L32.8 40.449C33.2845 40.9404 33.8608 41.3305 34.4959 41.5967C35.1309 41.8629 35.8121 42 36.5 42C37.1879 42 37.8691 41.8629 38.5041 41.5967C39.1392 41.3305 39.7155 40.9404 40.2 40.449V40.449Z" fill="black"/>
</svg>
