<svg width="42" height="74" viewBox="0 0 42 74" fill="none" xmlns="http://www.w3.org/2000/svg">
<path d="M40.4483 1.5624C39.961 1.06733 39.3812 0.674377 38.7423 0.406219C38.1035 0.138061 37.4183 -4.00543e-07 36.7263 -4.61043e-07C36.0342 -5.21544e-07 35.349 0.138061 34.7102 0.406219C34.0714 0.674377 33.4916 1.06733 33.0043 1.5624L1.55066 33.2543C1.05931 33.7453 0.669319 34.3295 0.403175 34.9732C0.137035 35.6168 3.29521e-06 36.3072 3.23425e-06 37.0045C3.17329e-06 37.7018 0.137035 38.3922 0.403175 39.0358C0.669318 39.6795 1.05931 40.2637 1.55066 40.7547L33.0043 72.4466C33.4931 72.9391 34.0733 73.3298 34.7119 73.5963C35.3506 73.8628 36.035 74 36.7263 74C37.4175 74 38.102 73.8628 38.7406 73.5963C39.3792 73.3298 39.9595 72.9391 40.4483 72.4466C40.9371 71.9541 41.3248 71.3695 41.5893 70.726C41.8538 70.0825 41.99 69.3929 41.99 68.6964C41.99 67.9999 41.8538 67.3103 41.5893 66.6668C41.3248 66.0234 40.9371 65.4387 40.4483 64.9462L12.7691 36.9517L40.5531 8.95718C41.4998 7.95607 42.0191 6.62083 41.9995 5.23822C41.9799 3.85561 41.423 2.53586 40.4483 1.5624Z" fill="black"/>
</svg>
