<svg width="73" height="42" viewBox="0 0 73 42" fill="none" xmlns="http://www.w3.org/2000/svg">
<path d="M32.8 1.55102L1.53257 33.0121C0.551279 33.9995 0 35.3387 0 36.735C0 38.1314 0.551279 39.4705 1.53257 40.4579C2.51387 41.4453 3.8448 42 5.23256 42C6.62032 42 7.95124 41.4453 8.93254 40.4579L36.4479 12.6673L64.0675 40.4579C65.0488 41.4453 66.3797 42 67.7674 42C69.1552 42 70.4861 41.4453 71.4674 40.4579C72.4487 39.4705 73 38.1314 73 36.735C73 35.3387 72.4487 33.9995 71.4674 33.0121L40.2 1.55102C39.7155 1.05955 39.1392 0.669466 38.5041 0.403259C37.8691 0.137053 37.1879 0 36.5 0C35.8121 0 35.1309 0.137053 34.4959 0.403259C33.8608 0.669466 33.2845 1.05955 32.8 1.55102Z" fill="black"/>
</svg>
