<svg width="42" height="74" viewBox="0 0 42 74" fill="none" xmlns="http://www.w3.org/2000/svg">
<path d="M1.5517 72.4376C2.03904 72.9327 2.61885 73.3256 3.25767 73.5938C3.89648 73.8619 4.58168 74 5.27372 74C5.96576 74 6.65096 73.8619 7.28978 73.5938C7.9286 73.3256 8.50839 72.9327 8.99573 72.4376L40.4493 40.7457C40.9407 40.2547 41.3307 39.6705 41.5968 39.0268C41.863 38.3832 42 37.6928 42 36.9955C42 36.2982 41.863 35.6078 41.5968 34.9642C41.3307 34.3205 40.9407 33.7363 40.4493 33.2453L8.99573 1.55339C8.50695 1.06091 7.92668 0.670239 7.28806 0.403709C6.64943 0.137178 5.96496 0 5.27372 0C4.58248 0 3.89801 0.137178 3.25939 0.403709C2.62076 0.670239 2.04049 1.06091 1.5517 1.55339C1.06292 2.04587 0.675204 2.63054 0.410678 3.274C0.146151 3.91746 0.0100044 4.60711 0.0100044 5.30359C0.0100044 6.00007 0.146151 6.68973 0.410678 7.33319C0.675204 7.97665 1.06292 8.56132 1.5517 9.05381L29.2309 37.0483L1.44687 65.0428C0.500213 66.0439 -0.0190676 67.3792 0.000535505 68.7618C0.0201386 70.1444 0.577055 71.4641 1.5517 72.4376Z" fill="black"/>
</svg>
