<svg width="63" height="63" viewBox="0 0 63 63" fill="none" xmlns="http://www.w3.org/2000/svg">
<path d="M1.41057 61.5894C1.82806 62.0104 2.32477 62.3445 2.87204 62.5725C3.4193 62.8005 4.00629 62.9178 4.59915 62.9178C5.19201 62.9178 5.77901 62.8005 6.32627 62.5725C6.87354 62.3445 7.37024 62.0104 7.78773 61.5894L31.5 37.8772L55.3021 61.6792C56.1477 62.5249 57.2947 63 58.4907 63C59.6866 63 60.8336 62.5249 61.6792 61.6792C62.5249 60.8336 63 59.6866 63 58.4907C63 57.2947 62.5249 56.1477 61.6792 55.3021L37.8772 31.5L61.6792 7.69792C62.5249 6.85225 63 5.70528 63 4.50933C63 3.31338 62.5249 2.16642 61.6792 1.32076C60.8336 0.475092 59.6866 0 58.4907 0C57.2947 0 56.1477 0.475092 55.3021 1.32076L31.5 25.1228L7.69792 1.41057C6.85225 0.564904 5.70528 0.0898212 4.50933 0.0898212C3.31338 0.0898212 2.16642 0.564904 1.32076 1.41057C0.475092 2.25623 0 3.4032 0 4.59915C0 5.7951 0.475092 6.94207 1.32076 7.78773L25.1228 31.5L1.41057 55.3021C0.587704 56.1416 0.1268 57.2702 0.1268 58.4458C0.1268 59.6213 0.587704 60.7499 1.41057 61.5894Z" fill="black"/>
</svg>
