<svg width="74" height="74" viewBox="0 0 74 74" fill="none" xmlns="http://www.w3.org/2000/svg">
<path d="M29.5588 5.88216C28.6592 5.88216 27.7964 6.23954 27.1603 6.87568C26.5241 7.51181 26.1667 8.3746 26.1667 9.27423V21.35L5.81432 0.997579C5.17558 0.358839 4.30926 0 3.40595 0C2.50264 0 1.63632 0.358839 0.997579 0.997579C0.358839 1.63632 0 2.50264 0 3.40595C0 4.30926 0.358839 5.17558 0.997579 5.81432L21.35 26.1667H9.20639C8.30676 26.1667 7.44397 26.5241 6.80784 27.1603C6.1717 27.7964 5.81432 28.6592 5.81432 29.5588C5.81432 30.4585 6.1717 31.3212 6.80784 31.9574C7.44397 32.5935 8.30676 32.9509 9.20639 32.9509H29.5588C30.4585 32.9509 31.3212 32.5935 31.9574 31.9574C32.5935 31.3212 32.9509 30.4585 32.9509 29.5588V9.61344C32.9984 9.14033 32.946 8.6625 32.797 8.21097C32.6479 7.75943 32.4056 7.34428 32.0858 6.99244C31.7659 6.6406 31.3757 6.35994 30.9403 6.16866C30.505 5.97739 30.0343 5.87978 29.5588 5.88216Z" fill="black"/>
<path d="M52.0143 47.2653H64.2936C65.1932 47.2653 66.056 46.9079 66.6921 46.2718C67.3283 45.6356 67.6856 44.7728 67.6856 43.8732C67.6856 42.9736 67.3283 42.1108 66.6921 41.4747C66.056 40.8385 65.1932 40.4811 64.2936 40.4811H43.9411C43.0415 40.4811 42.1787 40.8385 41.5426 41.4747C40.9064 42.1108 40.5491 42.9736 40.5491 43.8732V64.2256C40.5491 65.1253 40.9064 65.9881 41.5426 66.6242C42.1787 67.2603 43.0415 67.6177 43.9411 67.6177C44.8408 67.6177 45.7036 67.2603 46.3397 66.6242C46.9758 65.9881 47.3332 65.1253 47.3332 64.2256V52.1499L67.6856 72.5023C68.3244 73.141 69.1907 73.4999 70.094 73.4999C70.9973 73.4999 71.8637 73.141 72.5024 72.5023C73.1411 71.8636 73.5 70.9972 73.5 70.0939C73.5 69.1906 73.1411 68.3243 72.5024 67.6856L52.0143 47.2653Z" fill="black"/>
</svg>
