<svg width="74" height="74" viewBox="0 0 74 74" fill="none" xmlns="http://www.w3.org/2000/svg">
<path d="M11.4168 6.7555H23.6442C24.5401 6.7555 25.3992 6.39963 26.0327 5.76618C26.6661 5.13273 27.022 4.27358 27.022 3.37775C27.022 2.48191 26.6661 1.62277 26.0327 0.989317C25.3992 0.355866 24.5401 0 23.6442 0H3.37775C2.48191 0 1.62277 0.355866 0.98932 0.989317C0.35587 1.62277 0 2.48191 0 3.37775V23.6442C0 24.5401 0.35587 25.3992 0.98932 26.0327C1.62277 26.6661 2.48191 27.022 3.37775 27.022C4.27358 27.022 5.13273 26.6661 5.76618 26.0327C6.39963 25.3992 6.7555 24.5401 6.7555 23.6442V11.6195L27.022 31.886C27.658 32.522 28.5207 32.8793 29.4202 32.8793C30.3197 32.8793 31.1824 32.522 31.8184 31.886C32.4544 31.2499 32.8118 30.3873 32.8118 29.4878C32.8118 28.5883 32.4544 27.7256 31.8184 27.0896L11.4168 6.7555Z" fill="black"/>
<path d="M70.1221 46.613C69.2263 46.613 68.3671 46.9689 67.7337 47.6023C67.1002 48.2358 66.7444 49.0949 66.7444 49.9907V61.948L46.4779 41.6815C45.8418 41.0454 44.9792 40.6881 44.0797 40.6881C43.1802 40.6881 42.3175 41.0454 41.6815 41.6815C41.0454 42.3175 40.6881 43.1802 40.6881 44.0797C40.6881 44.9792 41.0454 45.8418 41.6815 46.4779L61.948 66.7444H49.8556C48.9598 66.7444 48.1007 67.1002 47.4672 67.7337C46.8338 68.3671 46.4779 69.2263 46.4779 70.1221C46.4779 71.018 46.8338 71.8771 47.4672 72.5106C48.1007 73.144 48.9598 73.4999 49.8556 73.4999H70.1221C71.018 73.4999 71.8771 73.144 72.5106 72.5106C73.144 71.8771 73.4999 71.018 73.4999 70.1221V50.3285C73.5472 49.8574 73.495 49.3816 73.3466 48.932C73.1982 48.4823 72.9569 48.0689 72.6384 47.7186C72.3199 47.3682 71.9313 47.0888 71.4978 46.8983C71.0643 46.7078 70.5956 46.6106 70.1221 46.613Z" fill="black"/>
</svg>
