<svg width="22" height="22" viewBox="0 0 22 22" fill="none" xmlns="http://www.w3.org/2000/svg">
<path d="M11 0C4.9225 0 0 4.9225 0 11C0 17.0775 4.9225 22 11 22C17.0775 22 22 17.0775 22 11C22 4.9225 17.0775 0 11 0ZM11 20.9C5.5275 20.9 1.1 16.4725 1.1 11C1.1 5.5275 5.5275 1.1 11 1.1C16.4725 1.1 20.9 5.5275 20.9 11C20.9 16.4725 16.4725 20.9 11 20.9Z" fill="#6A4F35"/>
<path d="M15.1247 10.45H11.5497V6.87495C11.5497 6.57245 11.3022 6.32495 10.9997 6.32495C10.6972 6.32495 10.4497 6.57245 10.4497 6.87495V10.45H6.87471C6.57221 10.45 6.32471 10.6975 6.32471 11C6.32471 11.3025 6.57221 11.55 6.87471 11.55H10.4497V15.125C10.4497 15.4275 10.6972 15.675 10.9997 15.675C11.3022 15.675 11.5497 15.4275 11.5497 15.125V11.55H15.1247C15.4272 11.55 15.6747 11.3025 15.6747 11C15.6747 10.6975 15.4272 10.45 15.1247 10.45Z" fill="#6A4F35"/>
</svg>
