<svg width="22" height="22" viewBox="0 0 22 22" fill="none" xmlns="http://www.w3.org/2000/svg">
<path d="M11 22C4.9225 22 0 17.0775 0 11C0 4.9225 4.9225 0 11 0C17.0775 0 22 4.9225 22 11C22 17.0775 17.0775 22 11 22ZM11 1.1C5.5275 1.1 1.1 5.5275 1.1 11C1.1 16.4725 5.5275 20.9 11 20.9C16.4725 20.9 20.9 16.4725 20.9 11C20.9 5.5275 16.4725 1.1 11 1.1Z" fill="#49BAAE"/>
<path d="M15.1252 11.55H6.8752C6.5727 11.55 6.3252 11.3025 6.3252 11C6.3252 10.6975 6.5727 10.45 6.8752 10.45H15.1252C15.4277 10.45 15.6752 10.6975 15.6752 11C15.6752 11.3025 15.4277 11.55 15.1252 11.55Z" fill="#49BAAE"/>
</svg>
