<svg width="20" height="20" viewBox="0 0 20 20" fill="none" xmlns="http://www.w3.org/2000/svg">
<path d="M15.994 0.92384C14.9643 0.524225 13.8418 0.427192 12.7588 0.644179C11.6757 0.861166 10.6773 1.38313 9.88126 2.14854C9.12263 1.4034 8.16719 0.889906 7.12697 0.668276C6.08675 0.446645 5.00488 0.526063 4.00821 0.897217C2.74141 1.50951 1.68526 2.48435 0.973891 3.69789C0.262524 4.91144 -0.0719571 6.30895 0.0129318 7.71291C0.0129318 12.8912 6.47196 17.0312 8.89576 18.6819L9.44178 19.0413C9.55051 19.1129 9.67783 19.1511 9.80802 19.1511C9.9382 19.1511 10.0655 19.1129 10.1742 19.0413L10.9067 18.5621C13.3838 16.978 19.9893 12.7581 19.9893 7.6996C20.0661 6.30224 19.7278 4.91338 19.0169 3.70773C18.306 2.50209 17.2543 1.53351 15.994 0.92384Z" fill="#E57584"/>
</svg>
