<svg width="26" height="25" viewBox="0 0 26 25" fill="none" xmlns="http://www.w3.org/2000/svg">
<path d="M20.7922 1.07656C19.4536 0.561472 17.9944 0.436401 16.5864 0.716086C15.1785 0.995771 13.8805 1.66855 12.8456 2.65513C11.8594 1.69468 10.6174 1.03282 9.26506 0.747146C7.91278 0.461475 6.50634 0.563841 5.21067 1.04224C3.56383 1.83146 2.19083 3.08797 1.26606 4.65217C0.341281 6.21638 -0.0935442 8.01769 0.0168113 9.82733C0.0168113 16.5019 8.41355 21.8382 11.5645 23.9658L12.2743 24.4291C12.4157 24.5214 12.5812 24.5705 12.7504 24.5705C12.9197 24.5705 13.0852 24.5214 13.2265 24.4291L14.1787 23.8114C17.3989 21.7696 25.9861 16.3304 25.9861 9.81017C26.0859 8.00904 25.6461 6.21887 24.7219 4.66485C23.7978 3.11084 22.4305 1.86239 20.7922 1.07656ZM13.3477 22.3873L12.863 22.6961L12.6206 22.5417C9.95439 20.8258 1.85198 15.5754 1.85198 9.84449C1.73394 8.38313 2.05376 6.91975 2.77136 5.63777C3.48895 4.3558 4.57239 3.31226 5.88587 2.63797C6.45714 2.40441 7.06845 2.28208 7.68641 2.27764C8.55021 2.31774 9.39701 2.52984 10.1763 2.90128C10.9556 3.27271 11.6515 3.79589 12.2224 4.4396C12.39 4.59899 12.6133 4.68799 12.8456 4.68799C13.078 4.68799 13.3013 4.59899 13.4689 4.4396C14.2654 3.50673 15.3336 2.841 16.527 2.53379C17.7204 2.22658 18.9805 2.29294 20.1344 2.72376C21.4629 3.36632 22.5707 4.38303 23.3191 5.64659C24.0674 6.91015 24.423 8.36442 24.3414 9.82733C24.3414 15.4038 16.3428 20.4827 13.3477 22.3873Z" fill="#49BAAE"/>
</svg>
