<svg width="24" height="22" viewBox="0 0 24 22" fill="none" xmlns="http://www.w3.org/2000/svg">
<path d="M23.2947 10.4067H6.65512C6.3215 10.4067 6.05022 10.6731 6.05022 11.0006C6.05022 11.3281 6.3215 11.5944 6.65512 11.5944H23.2935C23.6271 11.5944 23.8984 11.3281 23.8984 11.0006C23.8984 10.6731 23.6283 10.4067 23.2947 10.4067Z" fill="#6A4F35"/>
<path d="M23.3951 1.58427H6.65512C6.3215 1.58427 6.05022 1.85058 6.05022 2.17809C6.05022 2.5056 6.3215 2.77192 6.65512 2.77192H23.3951C23.7287 2.77192 24 2.5056 24 2.17809C24 1.85058 23.7287 1.58427 23.3951 1.58427Z" fill="#6A4F35"/>
<path d="M23.3951 19.4264H6.65512C6.3215 19.4264 6.05022 19.6927 6.05022 20.0202C6.05022 20.3477 6.3215 20.614 6.65512 20.614H23.3951C23.7287 20.614 24 20.3477 24 20.0202C24 19.6927 23.7287 19.4264 23.3951 19.4264Z" fill="#6A4F35"/>
<path d="M2.11717 0C0.950072 0 0 0.932667 0 2.07839C0 3.22524 0.950072 4.15677 2.11717 4.15677C3.28543 4.15677 4.23434 3.2241 4.23434 2.07839C4.2355 0.932667 3.28543 0 2.11717 0ZM2.11717 2.97026C1.61616 2.97026 1.20981 2.57022 1.20981 2.07952C1.20981 1.58882 1.61732 1.18878 2.11717 1.18878C2.61703 1.18878 3.02453 1.58882 3.02453 2.07952C3.02569 2.57022 2.61818 2.97026 2.11717 2.97026Z" fill="#6A4F35"/>
<path d="M2.11717 8.92218C0.950072 8.92218 0 9.85485 0 11.0006C0 12.1463 0.950072 13.0789 2.11717 13.0789C3.28543 13.0789 4.23434 12.1463 4.23434 11.0006C4.23434 9.85485 3.28543 8.92218 2.11717 8.92218ZM2.11717 11.8913C1.61616 11.8913 1.20981 11.4913 1.20981 11.0006C1.20981 10.5099 1.61732 10.1098 2.11717 10.1098C2.61703 10.1098 3.02569 10.5087 3.02569 11.0006C3.02569 11.4924 2.61818 11.8913 2.11717 11.8913Z" fill="#6A4F35"/>
<path d="M2.11717 17.8432C0.950072 17.8432 0 18.7759 0 19.9216C0 21.0673 0.950072 22 2.11717 22C3.28543 22 4.23434 21.0673 4.23434 19.9216C4.2355 18.7759 3.28543 17.8432 2.11717 17.8432ZM2.11717 20.8124C1.61616 20.8124 1.20981 20.4123 1.20981 19.9216C1.20981 19.4298 1.61732 19.0309 2.11717 19.0309C2.61703 19.0309 3.02453 19.4309 3.02453 19.9216C3.02569 20.4134 2.61818 20.8124 2.11717 20.8124Z" fill="#6A4F35"/>
</svg>
