<svg width="22" height="25" viewBox="0 0 22 25" fill="none" xmlns="http://www.w3.org/2000/svg">
<path d="M10.9407 7.09198C10.104 7.09198 9.28599 7.32666 8.59024 7.76635C7.8945 8.20604 7.35223 8.83099 7.03201 9.56217C6.71179 10.2933 6.62801 11.0979 6.79126 11.8741C6.9545 12.6503 7.35744 13.3633 7.94913 13.923C8.54081 14.4826 9.29466 14.8637 10.1154 15.0181C10.936 15.1725 11.7867 15.0932 12.5598 14.7904C13.3329 14.4875 13.9936 13.9746 14.4585 13.3166C14.9234 12.6585 15.1715 11.8849 15.1715 11.0935C15.1715 10.0322 14.7258 9.01442 13.9323 8.26399C13.1389 7.51356 12.0628 7.09198 10.9407 7.09198ZM10.9407 13.4944C10.4387 13.4944 9.94789 13.3536 9.53044 13.0897C9.11299 12.8259 8.78763 12.451 8.5955 12.0123C8.40337 11.5735 8.3531 11.0908 8.45105 10.6251C8.549 10.1594 8.79076 9.73155 9.14577 9.39578C9.50078 9.06001 9.95309 8.83135 10.4455 8.73871C10.9379 8.64607 11.4483 8.69362 11.9122 8.87533C12.376 9.05705 12.7725 9.36478 13.0514 9.7596C13.3303 10.1544 13.4792 10.6186 13.4792 11.0935C13.4792 11.7302 13.2118 12.3409 12.7357 12.7912C12.2596 13.2414 11.614 13.4944 10.9407 13.4944Z" fill="#49BAAE"/>
<path d="M3.22392 3.60266C2.20211 4.56488 1.3913 5.70851 0.838052 6.96789C0.284801 8.22728 0 9.57763 0 10.9414C0 12.3052 0.284801 13.6555 0.838052 14.9149C1.3913 16.1743 2.20211 17.3179 3.22392 18.2801C5.2039 20.1528 10.2469 24.2023 10.45 24.3784C10.6033 24.5024 10.7983 24.5705 11 24.5705C11.2017 24.5705 11.3967 24.5024 11.55 24.3784C11.77 24.2023 16.7961 20.1528 18.7761 18.2801C19.7979 17.3179 20.6087 16.1743 21.1619 14.9149C21.7152 13.6555 22 12.3052 22 10.9414C22 9.57763 21.7152 8.22728 21.1619 6.96789C20.6087 5.70851 19.7979 4.56488 18.7761 3.60266C16.709 1.66053 13.9136 0.570526 11 0.570526C8.08637 0.570526 5.291 1.66053 3.22392 3.60266ZM17.5746 17.1437C16.0176 18.6163 12.3792 21.5934 10.9915 22.7138C9.60386 21.5934 5.91466 18.6163 4.40852 17.1437C2.66709 15.4924 1.69054 13.2544 1.69371 10.9221C1.69689 8.58975 2.67952 6.35415 4.42545 4.70707C6.17137 3.06 8.53757 2.13636 11.0035 2.13936C13.4694 2.14237 15.8331 3.07176 17.5746 4.72308C18.4403 5.53678 19.1274 6.50439 19.5962 7.5702C20.065 8.63602 20.3064 9.77901 20.3064 10.9334C20.3064 12.0878 20.065 13.2308 19.5962 14.2966C19.1274 15.3624 18.4403 16.33 17.5746 17.1437Z" fill="#49BAAE"/>
</svg>
