<svg width="20" height="21" viewBox="0 0 20 21" fill="none" xmlns="http://www.w3.org/2000/svg">
<path d="M19.8276 19.3698L14.0343 13.4861C15.3842 11.8962 16.0746 9.83665 15.9602 7.74048C15.8459 5.64432 14.9358 3.67483 13.4212 2.24611C11.9067 0.817393 9.90565 0.0407507 7.83892 0.0794761C5.7722 0.118202 3.80076 0.969278 2.33912 2.45376C0.877472 3.93825 0.03949 5.94049 0.00136037 8.03951C-0.0367693 10.1385 0.727924 12.1708 2.13466 13.709C3.54139 15.2473 5.48058 16.1716 7.54449 16.2877C9.60841 16.4039 11.6363 15.7027 13.2017 14.3317L18.9949 20.2155C19.0496 20.271 19.1145 20.3151 19.1859 20.3451C19.2574 20.3752 19.3339 20.3906 19.4112 20.3906C19.4886 20.3906 19.5651 20.3752 19.6365 20.3451C19.708 20.3151 19.7729 20.271 19.8276 20.2155C19.8822 20.16 19.9256 20.094 19.9552 20.0215C19.9848 19.9489 20 19.8712 20 19.7927C20 19.7141 19.9848 19.6364 19.9552 19.5638C19.9256 19.4913 19.8822 19.4254 19.8276 19.3698ZM1.23991 8.22164C1.23991 6.85771 1.63814 5.5244 2.38424 4.39033C3.13035 3.25627 4.19081 2.37237 5.43153 1.85041C6.67225 1.32846 8.03751 1.19189 9.35465 1.45798C10.6718 1.72407 11.8817 2.38087 12.8313 3.34531C13.7809 4.30976 14.4276 5.53854 14.6896 6.87626C14.9516 8.21399 14.8171 9.60058 14.3032 10.8607C13.7892 12.1208 12.9189 13.1978 11.8023 13.9556C10.6857 14.7133 9.37292 15.1178 8.02997 15.1178C6.22914 15.1178 4.50206 14.3912 3.22868 13.098C1.95529 11.8047 1.23991 10.0506 1.23991 8.22164Z" fill="#6A4F35"/>
</svg>
