<svg width="105" height="105" viewBox="0 0 105 105" fill="none" xmlns="http://www.w3.org/2000/svg">
<path d="M104.095 99.7233L73.6801 69.3088C80.7672 61.0903 84.3916 50.4441 83.7913 39.6086C83.191 28.773 78.4128 18.5923 70.4614 11.207C62.5099 3.8216 52.0047 -0.193039 41.1543 0.00714194C30.304 0.207322 19.954 4.60673 12.2804 12.2804C4.60673 19.954 0.207322 30.304 0.00714194 41.1543C-0.193039 52.0047 3.8216 62.5099 11.207 70.4614C18.5923 78.4128 28.773 83.191 39.6086 83.7913C50.4441 84.3916 61.0903 80.7672 69.3088 73.6801L99.7233 104.095C100.01 104.382 100.351 104.609 100.726 104.765C101.101 104.92 101.503 105 101.909 105C102.315 105 102.717 104.92 103.092 104.765C103.467 104.609 103.808 104.382 104.095 104.095C104.382 103.808 104.609 103.467 104.765 103.092C104.92 102.717 105 102.315 105 101.909C105 101.503 104.92 101.101 104.765 100.726C104.609 100.351 104.382 100.01 104.095 99.7233ZM6.50954 42.0958C6.50954 35.0453 8.60025 28.1532 12.5173 22.2909C16.4343 16.4287 22.0017 11.8596 28.5155 9.1615C35.0293 6.46341 42.1969 5.75746 49.1119 7.13294C56.0269 8.50842 62.3787 11.9035 67.3642 16.889C72.3496 21.8744 75.7447 28.2262 77.1202 35.1412C78.4957 42.0562 77.7897 49.2238 75.0916 55.7376C72.3935 62.2514 67.8245 67.8188 61.9622 71.7359C56.1 75.6529 49.2078 77.7436 42.1574 77.7436C32.703 77.7436 23.6358 73.9879 16.9505 67.3026C10.2653 60.6173 6.50954 51.5502 6.50954 42.0958Z" fill="black"/>
</svg>
