<?xml version="1.0" encoding="utf-8"?>
<!-- Generator: Adobe Illustrator 14.0.0, SVG Export Plug-In . SVG Version: 6.00 Build 43363)  -->
<!DOCTYPE svg PUBLIC "-//W3C//DTD SVG 1.1//EN" "http://www.w3.org/Graphics/SVG/1.1/DTD/svg11.dtd">
<svg version="1.1" id="Layer_1" xmlns="http://www.w3.org/2000/svg" xmlns:xlink="http://www.w3.org/1999/xlink" x="0px" y="0px"
	 width="25px" height="25px" viewBox="0 0 25 25" enable-background="new 0 0 25 25" xml:space="preserve">
<path fill="#6A4F35" d="M5.729,1.623c-0.218,0-0.542,0.042-0.987,0.144C4.293,1.87,3.971,1.972,3.756,2.066l-0.01,0.004v0
	C3.606,2.129,3.408,2.27,3.16,2.555C2.916,2.836,2.649,3.228,2.363,3.744c-0.502,0.927-0.74,1.817-0.74,2.678
	c0,0.261,0.017,0.513,0.05,0.755c0.032,0.237,0.092,0.515,0.183,0.837c0.096,0.34,0.169,0.578,0.22,0.723
	C2.133,8.897,2.241,9.19,2.402,9.62c0.156,0.416,0.256,0.689,0.295,0.805c0.362,1.012,0.787,1.905,1.273,2.685l0.002,0.003
	c0.815,1.32,1.937,2.7,3.375,4.14s2.819,2.561,4.14,3.376l0.002,0.001c0.78,0.486,1.674,0.912,2.686,1.273
	c0.115,0.039,0.389,0.14,0.805,0.295c0.43,0.162,0.723,0.27,0.883,0.326c0.145,0.052,0.383,0.125,0.723,0.221
	c0.322,0.091,0.601,0.15,0.838,0.183c0.242,0.034,0.494,0.05,0.755,0.05c0.86,0,1.751-0.236,2.678-0.739
	c0.517-0.286,0.907-0.554,1.188-0.797c0.285-0.248,0.426-0.446,0.484-0.587l0.004-0.01l0,0c0.096-0.215,0.197-0.537,0.3-0.985
	c0.103-0.445,0.144-0.769,0.144-0.987c0-0.025,0-0.047-0.001-0.064c-0.026-0.021-0.063-0.052-0.118-0.09
	c-0.166-0.115-0.424-0.264-0.787-0.445l-0.018-0.01l-0.018-0.01c-0.196-0.113-0.48-0.271-0.854-0.475
	c-0.379-0.205-0.723-0.395-1.031-0.568c-0.312-0.174-0.604-0.344-0.879-0.509l-0.029-0.017l-0.027-0.021
	c-0.029-0.021-0.15-0.107-0.381-0.267c-0.212-0.146-0.371-0.24-0.484-0.295c-0.065-0.032-0.115-0.043-0.15-0.046
	c-0.011,0.004-0.028,0.012-0.055,0.027c-0.073,0.041-0.178,0.118-0.315,0.249c-0.295,0.28-0.565,0.585-0.812,0.915
	c-0.285,0.382-0.59,0.738-0.912,1.066c-0.172,0.174-0.35,0.328-0.533,0.442c-0.18,0.111-0.412,0.214-0.68,0.214
	c-0.207,0-0.412-0.055-0.592-0.121c-0.152-0.057-0.289-0.112-0.396-0.166c-0.104-0.053-0.256-0.143-0.438-0.254
	c-0.091-0.057-0.16-0.099-0.209-0.128c-0.023-0.015-0.041-0.025-0.053-0.032c-0.002-0.001-0.004-0.002-0.005-0.002l-0.001-0.001
	l-0.012-0.007c-1.518-0.842-2.831-1.813-3.932-2.913s-2.071-2.414-2.913-3.932L6.335,11.4l0,0c0-0.001-0.001-0.002-0.002-0.004
	c-0.007-0.012-0.017-0.029-0.032-0.054c-0.029-0.048-0.072-0.118-0.127-0.208c-0.112-0.182-0.202-0.333-0.254-0.438
	c-0.054-0.107-0.109-0.244-0.166-0.396c-0.067-0.18-0.122-0.384-0.122-0.592c0-0.267,0.103-0.5,0.214-0.679
	c0.114-0.184,0.268-0.362,0.443-0.534c0.328-0.322,0.684-0.626,1.066-0.912c0.33-0.247,0.635-0.517,0.915-0.812
	C8.4,6.633,8.477,6.529,8.519,6.456C8.534,6.43,8.542,6.411,8.545,6.401C8.542,6.365,8.531,6.316,8.5,6.25
	C8.445,6.137,8.351,5.978,8.205,5.767C8.045,5.535,7.96,5.415,7.938,5.385L7.917,5.357L7.9,5.328
	C7.735,5.054,7.565,4.761,7.391,4.45c-0.173-0.31-0.363-0.653-0.568-1.031C6.62,3.045,6.462,2.761,6.348,2.565l-0.01-0.018
	L6.329,2.53C6.147,2.166,5.999,1.908,5.883,1.742C5.845,1.688,5.815,1.65,5.793,1.625C5.776,1.624,5.755,1.623,5.729,1.623z
	 M5.758,1.587C5.755,1.585,5.754,1.583,5.754,1.583S5.755,1.584,5.758,1.587z M23.017,18.846c0,0-0.001-0.001-0.004-0.004
	C23.016,18.845,23.017,18.846,23.017,18.846z M4.445,0.478C4.934,0.366,5.367,0.3,5.729,0.3c0.17,0,0.381,0.015,0.575,0.092
	c0.173,0.064,0.304,0.175,0.39,0.26C6.792,0.75,6.884,0.865,6.968,0.986C7.134,1.224,7.313,1.54,7.503,1.92
	c0.121,0.21,0.282,0.501,0.482,0.868C8.188,3.162,8.375,3.5,8.544,3.803c0.164,0.291,0.321,0.564,0.474,0.819
	c0.051,0.07,0.145,0.205,0.274,0.393c0.165,0.239,0.302,0.461,0.397,0.66c0.112,0.232,0.179,0.483,0.179,0.747
	c0,0.262-0.092,0.497-0.202,0.69C9.556,7.307,9.403,7.498,9.228,7.682c-0.332,0.35-0.693,0.67-1.083,0.96
	c-0.336,0.251-0.646,0.517-0.93,0.795C7.083,9.567,7.008,9.663,6.97,9.725C6.966,9.73,6.964,9.735,6.961,9.739
	C6.967,9.763,6.978,9.796,6.993,9.84c0.051,0.138,0.087,0.221,0.108,0.264c0.022,0.045,0.083,0.151,0.197,0.334
	c0.087,0.142,0.164,0.266,0.201,0.333v0c0.79,1.424,1.688,2.635,2.692,3.638s2.214,1.901,3.637,2.692l0,0
	c0.067,0.036,0.191,0.113,0.334,0.2c0.184,0.114,0.289,0.175,0.334,0.196c0.043,0.021,0.127,0.058,0.264,0.109
	c0.044,0.016,0.077,0.025,0.102,0.031c0.004-0.002,0.009-0.005,0.014-0.008c0.063-0.039,0.158-0.114,0.287-0.246
	c0.279-0.283,0.544-0.594,0.795-0.93c0.291-0.391,0.611-0.751,0.961-1.083c0.185-0.175,0.375-0.328,0.57-0.439
	c0.193-0.11,0.429-0.202,0.69-0.202c0.264,0,0.515,0.066,0.747,0.18c0.198,0.096,0.42,0.232,0.66,0.396
	c0.187,0.13,0.322,0.225,0.393,0.275c0.255,0.152,0.527,0.311,0.818,0.474c0.304,0.17,0.642,0.356,1.016,0.56
	c0.367,0.199,0.657,0.36,0.867,0.481c0.381,0.19,0.696,0.369,0.935,0.536c0.121,0.084,0.236,0.175,0.333,0.273
	c0.086,0.086,0.196,0.217,0.261,0.39c0.077,0.194,0.092,0.405,0.092,0.575c0,0.361-0.065,0.795-0.178,1.283
	c-0.11,0.484-0.233,0.895-0.375,1.217c-0.167,0.395-0.466,0.748-0.835,1.067c-0.373,0.325-0.85,0.643-1.417,0.957l-0.005,0.003l0,0
	c-1.091,0.592-2.197,0.901-3.312,0.901c-0.318,0-0.63-0.021-0.936-0.063c-0.312-0.042-0.65-0.117-1.015-0.22
	c-0.348-0.098-0.619-0.18-0.808-0.247c-0.173-0.062-0.476-0.173-0.905-0.334c-0.435-0.163-0.684-0.255-0.766-0.282l-0.007-0.002
	l-0.007-0.002c-1.09-0.39-2.073-0.854-2.944-1.398c-1.428-0.881-2.888-2.072-4.379-3.564s-2.684-2.951-3.565-4.379
	c-0.543-0.872-1.008-1.855-1.398-2.945l-0.002-0.007L1.445,10.85c-0.027-0.082-0.119-0.331-0.282-0.766
	C1.002,9.655,0.891,9.352,0.83,9.179c-0.067-0.188-0.15-0.46-0.247-0.807C0.48,8.007,0.405,7.668,0.363,7.357
	C0.321,7.052,0.3,6.74,0.3,6.421c0-1.115,0.31-2.221,0.902-3.311l0.003-0.005l0,0c0.314-0.567,0.632-1.044,0.957-1.417
	c0.32-0.368,0.673-0.667,1.067-0.834C3.551,0.712,3.962,0.589,4.445,0.478z M14.83,17.654c0,0,0,0,0.002,0H14.83z M6.946,9.77
	C6.946,9.77,6.946,9.77,6.946,9.77L6.946,9.77z"/>
</svg>
