<svg width="14" height="16" viewBox="0 0 14 16" fill="none" xmlns="http://www.w3.org/2000/svg">
<path d="M7.46654 0C3.10014 0 0.533203 3.256 0.533203 5.86667C0.533203 7.44747 1.59987 9.06667 2.1332 9.06667C2.66654 9.06667 3.19987 9.06667 3.19987 8.53333C3.19987 8 2.1332 7.46667 2.1332 5.86667C2.1332 3.54453 4.6788 1.6 7.46654 1.6C9.93427 1.6 11.1999 3.31947 11.1999 5.33333C11.1999 7.98293 9.74121 10.1333 7.99987 10.1333C7.03827 10.1333 6.16894 9.50827 6.39987 8.53333C6.67667 7.36853 6.9332 7.46667 7.46654 5.33333C7.64894 4.60373 7.2356 3.73333 6.39987 3.73333C5.41694 3.73333 4.26654 4.50453 4.26654 5.86667C4.26654 6.7344 4.79987 7.46667 4.79987 7.46667C4.79987 7.46667 3.60254 11.6603 3.426 12.4069C3.07507 13.8928 2.63347 16 3.1668 16C3.70014 16 4.26654 14.9333 5.3332 12.2667C5.49054 11.8731 5.86654 10.6667 5.86654 10.6667C6.186 11.2757 7.5412 11.7333 8.53321 11.7333C11.4873 11.7333 13.3332 8.93867 13.3332 5.33333C13.3332 2.60693 10.9759 0 7.46654 0Z" fill="white"/>
</svg>
