<svg width="105" height="95" viewBox="0 0 105 95" fill="none" xmlns="http://www.w3.org/2000/svg">
<path d="M102.237 11.1283H43.9342C43.3 7.98769 41.6056 5.16412 39.1381 3.13602C36.6706 1.10791 33.5816 0 30.3947 0C27.2078 0 24.1189 1.10791 21.6514 3.13602C19.1839 5.16412 17.4895 7.98769 16.8553 11.1283H2.76316C2.03032 11.1283 1.3275 11.421 0.809311 11.9421C0.291118 12.4632 0 13.17 0 13.9069C0 14.6438 0.291118 15.3506 0.809311 15.8717C1.3275 16.3927 2.03032 16.6855 2.76316 16.6855H16.8553C17.4895 19.8261 19.1839 22.6497 21.6514 24.6778C24.1189 26.7059 27.2078 27.8138 30.3947 27.8138C33.5816 27.8138 36.6706 26.7059 39.1381 24.6778C41.6056 22.6497 43.3 19.8261 43.9342 16.6855H102.237C102.97 16.6855 103.673 16.3927 104.191 15.8717C104.709 15.3506 105 14.6438 105 13.9069C105 13.17 104.709 12.4632 104.191 11.9421C103.673 11.421 102.97 11.1283 102.237 11.1283ZM30.3947 22.2427C28.7552 22.2427 27.1525 21.7538 25.7894 20.8378C24.4262 19.9219 23.3637 18.62 22.7363 17.0969C22.1089 15.5737 21.9447 13.8976 22.2645 12.2807C22.5844 10.6637 23.3739 9.17838 24.5332 8.0126C25.6925 6.84683 27.1695 6.05292 28.7775 5.73128C30.3855 5.40964 32.0523 5.57472 33.567 6.20564C35.0817 6.83655 36.3763 7.90497 37.2872 9.27578C38.198 10.6466 38.6842 12.2582 38.6842 13.9069C38.6842 16.1177 37.8109 18.2379 36.2563 19.8012C34.7017 21.3644 32.5932 22.2427 30.3947 22.2427Z" fill="black"/>
<path d="M102.237 44.4714H93.6711C93.0369 41.3308 91.3425 38.5073 88.8749 36.4792C86.4074 34.4511 83.3185 33.3431 80.1316 33.3431C76.9447 33.3431 73.8558 34.4511 71.3882 36.4792C68.9207 38.5073 67.2263 41.3308 66.5921 44.4714H2.76316C2.03032 44.4714 1.3275 44.7642 0.809311 45.2853C0.291118 45.8064 0 46.5131 0 47.25C0 47.987 0.291118 48.6937 0.809311 49.2148C1.3275 49.7359 2.03032 50.0286 2.76316 50.0286H66.5921C67.2263 53.1692 68.9207 55.9928 71.3882 58.0209C73.8558 60.049 76.9447 61.1569 80.1316 61.1569C83.3185 61.1569 86.4074 60.049 88.8749 58.0209C91.3425 55.9928 93.0369 53.1692 93.6711 50.0286H102.237C102.97 50.0286 103.673 49.7359 104.191 49.2148C104.709 48.6937 105 47.987 105 47.25C105 46.5131 104.709 45.8064 104.191 45.2853C103.673 44.7642 102.97 44.4714 102.237 44.4714ZM80.1316 55.5858C77.9331 55.5858 75.8246 54.7076 74.27 53.1443C72.7155 51.5811 71.8421 49.4608 71.8421 47.25C71.8421 45.6014 72.3283 43.9897 73.2391 42.6189C74.15 41.2481 75.4446 40.1797 76.9593 39.5488C78.474 38.9179 80.1408 38.7528 81.7488 39.0744C83.3568 39.3961 84.8338 40.19 85.9931 41.3557C87.1524 42.5215 87.9419 44.0068 88.2618 45.6238C88.5816 47.2408 88.4175 48.9168 87.79 50.44C87.1626 51.9632 86.1002 53.265 84.737 54.181C83.3738 55.0969 81.7711 55.5858 80.1316 55.5858Z" fill="black"/>
<path d="M102.237 77.8146H49.4605C48.8263 74.674 47.1319 71.8504 44.6644 69.8223C42.1969 67.7942 39.108 66.6863 35.9211 66.6863C32.7341 66.6863 29.6452 67.7942 27.1777 69.8223C24.7102 71.8504 23.0158 74.674 22.3816 77.8146H2.76316C2.03032 77.8146 1.3275 78.1073 0.809311 78.6284C0.291118 79.1495 0 79.8562 0 80.5932C0 81.3301 0.291118 82.0368 0.809311 82.5579C1.3275 83.079 2.03032 83.3718 2.76316 83.3718H22.3816C23.0158 86.5124 24.7102 89.3359 27.1777 91.364C29.6452 93.3921 32.7341 94.5001 35.9211 94.5001C39.108 94.5001 42.1969 93.3921 44.6644 91.364C47.1319 89.3359 48.8263 86.5124 49.4605 83.3718H102.237C102.97 83.3718 103.673 83.079 104.191 82.5579C104.709 82.0368 105 81.3301 105 80.5932C105 79.8562 104.709 79.1495 104.191 78.6284C103.673 78.1073 102.97 77.8146 102.237 77.8146ZM35.9211 88.9289C34.2815 88.9289 32.6789 88.4401 31.3157 87.5241C29.9525 86.6082 28.89 85.3063 28.2626 83.7831C27.6352 82.26 27.471 80.5839 27.7909 78.9669C28.1107 77.35 28.9002 75.8647 30.0595 74.6989C31.2188 73.5331 32.6959 72.7392 34.3039 72.4176C35.9119 72.0959 37.5786 72.261 39.0933 72.8919C40.608 73.5228 41.9026 74.5913 42.8135 75.9621C43.7244 77.3329 44.2105 78.9445 44.2105 80.5932C44.2105 82.804 43.3372 84.9242 41.7826 86.4875C40.228 88.0507 38.1196 88.9289 35.9211 88.9289Z" fill="black"/>
</svg>
