<svg width="26" height="26" viewBox="0 0 26 26" fill="none" xmlns="http://www.w3.org/2000/svg">
<path d="M13 0.85C10.597 0.85 8.24788 1.56258 6.24983 2.89764C4.25177 4.2327 2.69447 6.13027 1.77487 8.35039C0.855264 10.5705 0.614654 13.0135 1.08346 15.3703C1.55227 17.7272 2.70945 19.8921 4.40866 21.5913C6.10786 23.2906 8.27279 24.4477 10.6297 24.9165C12.9865 25.3853 15.4295 25.1447 17.6496 24.2251C19.8697 23.3055 21.7673 21.7482 23.1024 19.7502C24.4374 17.7521 25.15 15.403 25.15 13C25.15 11.4044 24.8357 9.8245 24.2251 8.35039C23.6145 6.87629 22.7196 5.53688 21.5913 4.40865C20.4631 3.28042 19.1237 2.38546 17.6496 1.77486C16.1755 1.16427 14.5956 0.85 13 0.85ZM13 23.65C10.8936 23.65 8.83456 23.0254 7.08318 21.8551C5.3318 20.6849 3.96676 19.0216 3.16069 17.0756C2.35461 15.1295 2.14371 12.9882 2.55464 10.9223C2.96557 8.85639 3.97989 6.95874 5.46932 5.46931C6.95875 3.97988 8.85639 2.96557 10.9223 2.55464C12.9882 2.1437 15.1295 2.35461 17.0756 3.16068C19.0216 3.96676 20.6849 5.33179 21.8552 7.08318C23.0254 8.83456 23.65 10.8936 23.65 13C23.65 15.8246 22.5279 18.5334 20.5307 20.5307C18.5334 22.5279 15.8246 23.65 13 23.65Z" fill="#6A4F35" stroke="#6A4F35" stroke-width="0.3"/>
<path d="M17.2 14.05H13.15V7.6C13.15 7.40109 13.071 7.21032 12.9303 7.06967C12.7897 6.92902 12.5989 6.85 12.4 6.85C12.2011 6.85 12.0103 6.92902 11.8697 7.06967C11.729 7.21032 11.65 7.40109 11.65 7.6V14.8C11.65 14.9989 11.729 15.1897 11.8697 15.3303C12.0103 15.471 12.2011 15.55 12.4 15.55H17.2C17.3989 15.55 17.5897 15.471 17.7303 15.3303C17.871 15.1897 17.95 14.9989 17.95 14.8C17.95 14.6011 17.871 14.4103 17.7303 14.2697C17.5897 14.129 17.3989 14.05 17.2 14.05Z" fill="#6A4F35" stroke="#6A4F35" stroke-width="0.3"/>
</svg>
