<svg width="24" height="15" viewBox="0 0 24 15" fill="none" xmlns="http://www.w3.org/2000/svg">
<path d="M23.453 0.966785C23.6179 0.409879 23.453 0 22.66 0H20.0358C19.3675 0 19.06 0.351966 18.8952 0.744054C18.8952 0.744054 17.5586 4.00086 15.6695 6.11271C15.0592 6.72309 14.7785 6.91916 14.4444 6.91916C14.2796 6.91916 14.0256 6.72309 14.0256 6.16619V0.966785C14.0256 0.298488 13.8384 0 13.286 0H9.1603C8.7415 0 8.492 0.311896 8.492 0.601462C8.492 1.23407 9.43656 1.3811 9.5346 3.16326V7.03056C9.5346 7.87708 9.38308 8.03292 9.04896 8.03292C8.15788 8.03292 5.99255 4.76276 4.70944 1.02026C4.45107 0.294052 4.19704 0 3.5243 0H0.900002C0.151513 0 0 0.351966 0 0.744054C0 1.43901 0.89108 4.89199 4.14794 9.45425C6.3177 12.5685 9.37406 14.2572 12.1542 14.2572C13.8249 14.2572 14.0299 13.8829 14.0299 13.2369C14.0299 10.2606 13.8785 9.97995 14.7161 9.97995C15.1037 9.97995 15.7719 10.176 17.3314 11.6774C19.1134 13.4595 19.4075 14.2571 20.4055 14.2571H23.0297C23.7783 14.2571 24.157 13.8829 23.9386 13.1432C23.4397 11.5883 20.0669 8.38938 19.9155 8.17551C19.5279 7.67652 19.6392 7.45369 19.9155 7.00812C19.92 7.00379 23.1233 2.49496 23.453 0.966785Z" fill="#49BAAE"/>
</svg>
