<svg width="17" height="16" viewBox="0 0 17 16" fill="none" xmlns="http://www.w3.org/2000/svg">
<path d="M16.3335 7.79396C16.3335 12.0985 12.8172 15.5879 8.47892 15.5879C7.10167 15.5879 5.80781 15.2359 4.68212 14.6181L0.333496 16L1.75127 11.8183C1.03607 10.6439 0.624163 9.26649 0.624163 7.79396C0.624163 3.48942 4.14079 0 8.4791 0C12.8176 0 16.3335 3.48942 16.3335 7.79396ZM8.47892 1.24124C4.83732 1.24124 1.87519 4.1808 1.87519 7.79396C1.87519 9.22791 2.34256 10.5557 3.13314 11.6359L2.30807 14.0693L4.84585 13.2628C5.88852 13.9474 7.13759 14.3467 8.4791 14.3467C12.1202 14.3467 15.0828 11.4075 15.0828 7.79413C15.0827 4.18098 12.1203 1.24124 8.47892 1.24124ZM12.4453 9.58898C12.3968 9.50951 12.2686 9.46151 12.0763 9.36604C11.8835 9.27058 10.9367 8.80818 10.7607 8.74489C10.5842 8.68107 10.4555 8.64907 10.3273 8.84018C10.1991 9.03147 9.83003 9.46151 9.7175 9.58898C9.60514 9.7168 9.49296 9.7328 9.30025 9.63716C9.1079 9.54169 8.48763 9.33973 7.75216 8.68889C7.1799 8.18276 6.79341 7.55751 6.68105 7.36622C6.56887 7.17511 6.66932 7.07182 6.7655 6.97671C6.85225 6.89102 6.95821 6.7536 7.05439 6.64213C7.15092 6.53049 7.18292 6.45102 7.24674 6.32338C7.31127 6.19591 7.2791 6.08444 7.23074 5.98862C7.18274 5.89316 6.79732 4.95307 6.63696 4.57067C6.47661 4.18827 6.31643 4.25191 6.2039 4.25191C6.09172 4.25191 5.96318 4.23591 5.83483 4.23591C5.70647 4.23591 5.49776 4.28373 5.32123 4.47484C5.14487 4.66613 4.64763 5.12836 4.64763 6.06827C4.64763 7.00836 5.33723 7.91662 5.43376 8.04409C5.52994 8.17138 6.76532 10.1632 8.72265 10.9282C10.6802 11.6926 10.6802 11.4375 11.0332 11.4055C11.3859 11.3737 12.1721 10.9435 12.3331 10.4976C12.4931 10.051 12.4931 9.66862 12.4453 9.58898Z" fill="white"/>
</svg>
