<svg width="24" height="24" viewBox="0 0 24 24" fill="none" xmlns="http://www.w3.org/2000/svg">
<path d="M19.6161 11.1811H4.38388C1.96269 11.1811 0 13.1457 0 15.5664V19.0901C0 21.5108 1.96269 23.4749 4.38388 23.4749H19.6161C22.0368 23.4749 24 21.5108 24 19.0901V15.5664C24 13.1457 22.0368 11.1811 19.6161 11.1811ZM7.58407 13.9243H6.16796V20.9608H4.7998V13.9243H3.38467V12.7274H7.58407V13.9243ZM11.5843 20.9608H10.3708V20.2953C10.1452 20.5414 9.91278 20.7293 9.67007 20.8561C9.42737 20.9882 9.19298 21.0498 8.96495 21.0498C8.6831 21.0498 8.47367 20.9603 8.3303 20.7783C8.18937 20.5967 8.11744 20.3276 8.11744 19.964V14.8863H9.33097V19.5461C9.33097 19.69 9.35788 19.7932 9.40633 19.8573C9.45868 19.9234 9.54187 19.9537 9.65588 19.9537C9.74396 19.9537 9.85748 19.9117 9.99401 19.8265C10.1315 19.7404 10.2568 19.6327 10.3708 19.4996V14.8858H11.5843V20.9608ZM15.9902 19.7066C15.9902 20.1358 15.8948 20.4656 15.7044 20.6956C15.5151 20.9255 15.2381 21.0386 14.8794 21.0386C14.6407 21.0386 14.4283 20.9955 14.2438 20.9065C14.0584 20.8184 13.8837 20.6828 13.7246 20.4949V20.9603H12.4964V12.7274H13.7246V15.379C13.889 15.1955 14.0628 15.0531 14.2443 14.9577C14.4298 14.8603 14.6162 14.8134 14.8051 14.8134C15.1892 14.8134 15.4818 14.9416 15.6844 15.2004C15.8879 15.4593 15.9892 15.8385 15.9892 16.3357V19.7066H15.9902ZM20.1999 18.0698H17.8775V19.2144C17.8775 19.5334 17.9167 19.7556 17.996 19.8794C18.0772 20.0037 18.2137 20.0643 18.408 20.0643C18.6096 20.0643 18.749 20.012 18.8303 19.9073C18.9086 19.8016 18.9506 19.5716 18.9506 19.2144V18.9379H20.1999V19.2496C20.1999 19.872 20.0487 20.3413 19.7419 20.6579C19.44 20.9715 18.9849 21.1271 18.3801 21.1271C17.8355 21.1271 17.4063 20.9613 17.0946 20.6275C16.7839 20.2958 16.6254 19.8353 16.6254 19.2501V16.5216C16.6254 15.9966 16.7986 15.5645 17.1426 15.2332C17.4856 14.9019 17.9275 14.7365 18.4711 14.7365C19.0275 14.7365 19.4546 14.8897 19.7526 15.197C20.0506 15.5048 20.1999 15.9452 20.1999 16.5211V18.0698Z" fill="#49BAAE"/>
<path d="M18.4197 15.7984C18.226 15.7984 18.088 15.8527 18.0038 15.9662C17.9177 16.0729 17.8776 16.2554 17.8776 16.5104V17.1245H18.9507V16.5104C18.9507 16.2554 18.9076 16.0724 18.8225 15.9662C18.7407 15.8532 18.6042 15.7984 18.4197 15.7984Z" fill="#49BAAE"/>
<path d="M14.2325 15.7778C14.1464 15.7778 14.0593 15.7969 13.9756 15.8366C13.8905 15.8752 13.8073 15.9393 13.7251 16.0225V19.8065C13.8225 19.9043 13.9189 19.9797 14.0128 20.0227C14.1063 20.0643 14.2032 20.0878 14.3064 20.0878C14.4557 20.0878 14.5643 20.0448 14.6343 19.9577C14.7033 19.8715 14.7385 19.734 14.7385 19.5398V16.4027C14.7385 16.1962 14.6974 16.0416 14.6113 15.9354C14.5222 15.8307 14.396 15.7778 14.2325 15.7778Z" fill="#49BAAE"/>
<path d="M6.37837 9.07114H7.91681V5.30821L9.70823 0H8.14434L7.19212 3.62591H7.09523L6.09554 0H4.54584L6.37837 5.47752V9.07114Z" fill="#49BAAE"/>
<path d="M11.7928 9.23993C12.4142 9.23993 12.9016 9.07698 13.2569 8.75109C13.6097 8.42373 13.7863 7.97698 13.7863 7.40447V3.94786C13.7863 3.43847 13.6057 3.01912 13.2461 2.69568C12.884 2.37321 12.4201 2.21075 11.8544 2.21075C11.233 2.21075 10.7383 2.3644 10.3703 2.67121C10.0033 2.97802 9.81885 3.38954 9.81885 3.9097V7.37804C9.81885 7.94713 9.99843 8.39731 10.3571 8.73495C10.7158 9.07111 11.1953 9.23993 11.7928 9.23993ZM11.2262 3.85881C11.2262 3.71348 11.2785 3.59604 11.3808 3.50404C11.487 3.41401 11.6215 3.37046 11.7889 3.37046C11.9694 3.37046 12.1157 3.41401 12.2273 3.50404C12.3384 3.59604 12.3937 3.71348 12.3937 3.85881V7.50478C12.3937 7.68338 12.3394 7.82529 12.2293 7.92756C12.1202 8.03032 11.9734 8.08072 11.7889 8.08072C11.6083 8.08072 11.4689 8.03178 11.371 7.92902C11.2746 7.82871 11.2257 7.68779 11.2257 7.50429V3.85881H11.2262Z" fill="#49BAAE"/>
<path d="M15.8498 9.16898C16.1067 9.16898 16.3705 9.09558 16.642 8.95466C16.9165 8.81177 17.1793 8.60283 17.4294 8.33028V9.07161H18.7961V2.38007H17.4294V7.45928C17.3021 7.60461 17.1607 7.724 17.009 7.81893C16.8544 7.91288 16.7272 7.95986 16.6269 7.95986C16.4987 7.95986 16.4042 7.92463 16.3489 7.85172C16.2927 7.78174 16.2609 7.66724 16.2609 7.51017V2.38007H14.8961V7.97258C14.8961 8.37138 14.9764 8.66938 15.1349 8.86707C15.2964 9.06769 15.5322 9.16898 15.8498 9.16898Z" fill="#49BAAE"/>
</svg>
